<?xml version="1.0" encoding="UTF-8" standalone="no" ?>
<!DOCTYPE svg PUBLIC "-//W3C//DTD SVG 1.1//EN" "http://www.w3.org/Graphics/SVG/1.1/DTD/svg11.dtd">
<svg xmlns="http://www.w3.org/2000/svg" xmlns:xlink="http://www.w3.org/1999/xlink" version="1.1" width="53" height="53" viewBox="0 0 53 53" xml:space="preserve">
<desc>Created with Fabric.js 5.2.4</desc>
<defs>
</defs>
<g transform="matrix(1 0 0 1 26.5 26.5)" id="1a235bb0-04c4-4221-8ff3-8e365415fc1c"  >
<rect style="stroke: none; stroke-width: 1; stroke-dasharray: none; stroke-linecap: butt; stroke-dashoffset: 0; stroke-linejoin: miter; stroke-miterlimit: 4; fill: rgb(255,255,255); fill-rule: nonzero; opacity: 1; visibility: hidden;" vector-effect="non-scaling-stroke"  x="-26.5" y="-26.5" rx="0" ry="0" width="53" height="53" />
</g>
<g transform="matrix(Infinity NaN NaN Infinity 0 0)" id="66350faf-d3f0-414b-b55e-433b8f74ba55"  >
</g>
<g transform="matrix(1.32 0 0 1.32 26.5 26.5)"  >
<path style="stroke: none; stroke-width: 1; stroke-dasharray: none; stroke-linecap: butt; stroke-dashoffset: 0; stroke-linejoin: miter; stroke-miterlimit: 4; fill: rgb(0,0,0); fill-opacity: 0.45; fill-rule: evenodd; opacity: 1;"  transform=" translate(-20, -20)" d="M 7.5 12.167 C 7.5 11.522 8.06 11 8.75 11 L 31.25 11 C 31.94 11 32.5 11.522 32.5 12.167 C 32.5 12.811 31.94 13.333 31.25 13.333 L 8.75 13.333 C 8.06 13.333 7.5 12.811 7.5 12.167 Z M 7.5 20 C 7.5 19.356 8.06 18.833 8.75 18.833 L 31.25 18.833 C 31.94 18.833 32.5 19.355999999999998 32.5 20 C 32.5 20.644000000000002 31.94 21.167 31.25 21.167 L 8.75 21.167 C 8.06 21.167 7.5 20.644000000000002 7.5 20 Z M 8.75 26.667 C 8.06 26.667 7.5 27.189 7.5 27.833000000000002 C 7.5 28.478 8.06 29.000000000000004 8.75 29.000000000000004 L 31.25 29.000000000000004 C 31.94 29.000000000000004 32.5 28.478000000000005 32.5 27.833000000000002 C 32.5 27.189000000000004 31.94 26.667 31.25 26.667 L 8.75 26.667 Z" stroke-linecap="round" />
</g>
<g transform="matrix(NaN NaN NaN NaN 0 0)"  >
<g style=""   >
</g>
</g>
<g transform="matrix(NaN NaN NaN NaN 0 0)"  >
<g style=""   >
</g>
</g>
</svg>