<?xml version="1.0" encoding="UTF-8" standalone="no" ?>
<!DOCTYPE svg PUBLIC "-//W3C//DTD SVG 1.1//EN" "http://www.w3.org/Graphics/SVG/1.1/DTD/svg11.dtd">
<svg xmlns="http://www.w3.org/2000/svg" xmlns:xlink="http://www.w3.org/1999/xlink" version="1.1" width="39" height="39" viewBox="0 0 39 39" xml:space="preserve">
<desc>Created with Fabric.js 5.2.4</desc>
<defs>
</defs>
<g transform="matrix(1 0 0 1 19.5 19.5)" id="411db480-833c-416b-ad32-8cdc2b99c645"  >
<rect style="stroke: none; stroke-width: 1; stroke-dasharray: none; stroke-linecap: butt; stroke-dashoffset: 0; stroke-linejoin: miter; stroke-miterlimit: 4; fill: rgb(255,255,255); fill-rule: nonzero; opacity: 1; visibility: hidden;" vector-effect="non-scaling-stroke"  x="-19.5" y="-19.5" rx="0" ry="0" width="39" height="39" />
</g>
<g transform="matrix(Infinity NaN NaN Infinity 0 0)" id="54547efd-9c7c-4672-ba78-2c0db268adfd"  >
</g>
<g transform="matrix(1.22 0 0 1.22 19.5 19.5)"  >
<g style=""   >
		<g transform="matrix(1 0 0 1 0 -1.12)"  >
<path style="stroke: none; stroke-width: 1; stroke-dasharray: none; stroke-linecap: butt; stroke-dashoffset: 0; stroke-linejoin: miter; stroke-miterlimit: 4; fill: rgb(0,0,0); fill-opacity: 0.68; fill-rule: nonzero; opacity: 1;" vector-effect="non-scaling-stroke"  transform=" translate(-16, -14.88)" d="M 11.502 7.138 L 10.755 8.631 L 9.355 9.097 C 8.453000000000001 9.398 7.909000000000001 9.587 7.559 9.724 C 7.2090000000000005 9.861 7.04 9.950000000000001 6.899 10.054 C 6.4425841040225515 10.389482535631046 6.103240581298277 10.86001556456316 5.929 11.399000000000001 C 5.875 11.569 5.844 11.816 5.825 12.239 C 5.808 12.638000000000002 5.8 13.209000000000001 5.799 14.05 L 3.7 14.05 C 3.7 13.277000000000001 3.7030000000000003 12.644 3.73 12.115 C 3.76 11.541 3.82 11.104000000000001 3.932 10.755 C 4.2415584788369065 9.796039505932445 4.84506791324004 8.95882322968508 5.656999999999998 8.362000000000002 C 6.259 7.919000000000002 7.041 7.655000000000002 8.692 7.105000000000002 L 9.267 6.913000000000002 L 9.623999999999999 6.199000000000002 C 10.130999999999998 5.186000000000002 10.367999999999999 4.715000000000002 10.697 4.355000000000001 C 11.141640080937673 3.868411625932613 11.712971578501662 3.5152248819839658 12.347 3.3350000000000017 C 12.817 3.2020000000000013 13.344 3.200000000000001 14.477 3.200000000000001 L 17.524 3.200000000000001 C 18.657 3.200000000000001 19.184 3.202000000000001 19.653000000000002 3.335000000000001 C 20.287028421498338 3.515224881983965 20.858359919062327 3.8684116259326125 21.303 4.355 C 21.773 4.868 22.083000000000002 5.534000000000001 22.400000000000002 6.216 L 22.400000000000002 6.218 C 22.497000000000003 6.426 22.595000000000002 6.636 22.696 6.839 L 22.733 6.913 L 22.812 6.94 C 23.073 7.027 23.341 7.109 23.609 7.19 C 24.593000000000004 7.49 25.567 7.79 26.344 8.362 C 27.155391361909043 8.958712766311665 27.75852260612528 9.795539875456237 28.068 10.753999999999998 C 28.181 11.104 28.240000000000002 11.541 28.270000000000003 12.115 C 28.298000000000002 12.645 28.300000000000004 13.277000000000001 28.300000000000004 14.05 L 26.200000000000003 14.05 C 26.203227941281934 13.44655443370353 26.194559590599187 12.843103866943466 26.174 12.239999999999984 C 26.155000000000005 11.816 26.124000000000002 11.57 26.070000000000004 11.4 C 25.896130968911407 10.860283653200657 25.556754505448193 10.389005203422357 25.100000000000005 10.053 C 24.959000000000007 9.950000000000001 24.791000000000004 9.861 24.440000000000005 9.723 C 23.846432851169496 9.500909810368677 23.24794834846373 9.292190423909727 22.64499999999996 9.096999999999982 L 21.245000000000005 8.631000000000002 L 20.498000000000005 7.138000000000002 C 20.321167977922823 6.778185127781156 20.137467692591937 6.421786570578401 19.947000000000003 6.0689999999999955 C 19.8946371361964 5.962487487485537 19.829490355445014 5.862752467469241 19.753000000000007 5.772000000000002 C 19.571418763714096 5.573104502104411 19.338032833401382 5.428709942845655 19.079000000000008 5.355000000000002 C 18.96339164111555 5.327396264686523 18.844853632492704 5.313964195720761 18.726000000000006 5.315000000000002 C 18.516000000000005 5.305000000000002 18.159000000000006 5.3000000000000025 17.524000000000008 5.3000000000000025 L 14.477000000000007 5.3000000000000025 C 13.841000000000008 5.3000000000000025 13.484000000000007 5.306000000000003 13.274000000000008 5.315000000000002 C 13.064000000000007 5.3240000000000025 12.988000000000008 5.336000000000002 12.922000000000008 5.355000000000002 C 12.662606842149593 5.428541112534937 12.428855145432335 5.57294771628471 12.247000000000007 5.772000000000002 C 12.170509644554999 5.8627524674692415 12.105362863803613 5.962487487485537 12.053000000000006 6.069000000000003 C 11.952000000000005 6.253000000000002 11.787000000000006 6.569000000000002 11.503000000000005 7.138000000000002 Z M 3.7 19.45 L 5.800000000000001 19.45 C 5.800000000000001 20.535 5.803000000000001 21.262999999999998 5.841000000000001 21.83 C 5.881000000000001 22.409999999999997 5.950000000000001 22.65 6.005000000000001 22.782999999999998 C 6.279030129744382 23.444445559391056 6.804554440608941 23.969969870255614 7.466000000000001 24.243999999999996 C 7.599000000000001 24.298999999999996 7.840000000000001 24.367999999999995 8.420000000000002 24.407999999999998 C 9.020000000000001 24.447999999999997 9.803 24.45 11.000000000000002 24.45 L 13.3 24.45 L 13.3 26.55 L 11 26.55 C 9.832 26.55 8.966000000000001 26.55 8.277000000000001 26.503 C 7.590000000000001 26.456 7.093000000000001 26.363 6.662000000000001 26.185 C 5.486095935990969 25.697606378106617 4.551940879702743 24.763091616367376 4.065 23.587 C 3.8860000000000015 23.156 3.793000000000001 22.659 3.7460000000000013 21.972 C 3.7020000000000013 21.323 3.699000000000001 20.517000000000003 3.699000000000001 19.450000000000003 Z" stroke-linecap="round" />
</g>
		<g transform="matrix(1 0 0 1 0 0.13)"  >
<path style="stroke: none; stroke-width: 1; stroke-dasharray: none; stroke-linecap: butt; stroke-dashoffset: 0; stroke-linejoin: miter; stroke-miterlimit: 4; fill: rgb(0,0,0); fill-opacity: 0.68; fill-rule: evenodd; opacity: 1;" vector-effect="non-scaling-stroke"  transform=" translate(-16, -16.13)" d="M 22.05 16.125 C 22.05 19.4663227364763 19.3413227364763 22.175 16 22.175 C 12.6586772635237 22.175 9.950000000000001 19.4663227364763 9.950000000000001 16.125 C 9.950000000000001 12.7836772635237 12.6586772635237 10.075 16 10.075 C 19.3413227364763 10.075 22.05 12.783677263523698 22.05 16.125 Z M 16 20.075 C 18.181524761831636 20.075 19.95 18.306524761831632 19.95 16.125 C 19.95 13.943475238168364 18.181524761831636 12.174999999999999 16 12.174999999999999 C 13.818475238168366 12.174999999999999 12.05 13.943475238168364 12.05 16.125 C 12.05 18.306524761831632 13.818475238168366 20.075 16 20.075 Z" stroke-linecap="round" />
</g>
		<g transform="matrix(1 0 0 1 7.5 7)"  >
<path style="stroke: none; stroke-width: 1; stroke-dasharray: none; stroke-linecap: butt; stroke-dashoffset: 0; stroke-linejoin: miter; stroke-miterlimit: 4; fill: rgb(0,0,0); fill-opacity: 0.68; fill-rule: nonzero; opacity: 1;" vector-effect="non-scaling-stroke"  transform=" translate(-23.5, -23)" d="M 25.336 26.185 C 24.906 26.363 24.409 26.456 23.721 26.503 C 23.032 26.55 22.167 26.55 20.999 26.55 L 18.698999999999998 26.55 L 18.698999999999998 24.45 L 21 24.45 C 22.196 24.45 22.979 24.448999999999998 23.58 24.407999999999998 C 24.159999999999997 24.368 24.4 24.298999999999996 24.532999999999998 24.243999999999996 C 25.194633162097197 23.97042266397347 25.7205171942969 23.44525803537459 25.994999999999997 22.783999999999995 C 26.049999999999997 22.650999999999996 26.118 22.408999999999995 26.157999999999998 21.828999999999997 C 26.197 21.261999999999997 26.2 20.534999999999997 26.2 19.449999999999996 L 28.3 19.449999999999996 C 28.3 20.516999999999996 28.297 21.322999999999997 28.253 21.971999999999994 C 28.206 22.658999999999995 28.113 23.155999999999995 27.935 23.586999999999993 C 27.447825015857394 24.763281703180777 26.513281703180784 25.697825015857386 25.337 26.18499999999999 Z" stroke-linecap="round" />
</g>
</g>
</g>
<g transform="matrix(NaN NaN NaN NaN 0 0)"  >
<g style=""   >
</g>
</g>
<g transform="matrix(NaN NaN NaN NaN 0 0)"  >
<g style=""   >
</g>
</g>
</svg>